<?xml version="1.0" encoding="UTF-8" standalone="no"?>
<!-- Created with Inkscape (http://www.inkscape.org/) -->

<svg
   version="1.1"
   id="svg132"
   width="406.07999"
   height="203.2"
   viewBox="0 0 406.07999 203.2"
   xmlns="http://www.w3.org/2000/svg"
   xmlns:svg="http://www.w3.org/2000/svg">
  <defs
     id="defs136" />
  <g
     id="g138"
     style="display:inline">
    <path
       style="fill:#fc7300;stroke:#0000ff;stroke-width:0;fill-opacity:1"
       d="m 127.5376,7.6827025 c 0,0 36.67819,-0.327484 37.00569,0 0.32748,0.327484 0,89.5668345 0,89.5668345 l -36.59634,-36.59632 z"
       id="path400" />
  </g>
  <g
     id="layer2">
    <path
       style="display:none;fill:none;fill-opacity:1;stroke:#0000ff;stroke-width:1.13386;stroke-dasharray:none"
       d="m 207.53584,44.901281 c 8.13291,2.180564 16.26447,4.360765 21.83271,9.045886 5.56824,4.685122 8.57339,11.873895 10.07574,15.615568 1.50235,3.741674 1.50235,4.036296 1.50235,4.329924"
       id="path11252" />
    <path
       style="display:none;fill:none;fill-opacity:1;stroke:#0000ff;stroke-width:1.13386;stroke-dasharray:none"
       d="m 240.94664,73.185552 c 0.51854,7.82997 1.17857,17.796401 -1.23744,24.719745 -2.41601,6.923343 -7.83705,11.872993 -13.25825,16.822783"
       id="path11264" />
    <path
       style="display:none;fill:none;fill-opacity:1;stroke:#0000ff;stroke-width:1.13386;stroke-dasharray:none"
       d="m 227.33483,113.49064 c -4.41923,3.18185 -8.83857,6.36377 -14.55402,7.71918 -5.71545,1.35542 -12.72746,0.88402 -15.05498,0.76619 -2.32752,-0.11783 0.0295,0.11787 2.38539,0.35346"
       id="path11268" />
    <path
       style="display:none;fill:#000000;fill-opacity:1;stroke:#0000ff;stroke-width:1.13386;stroke-dasharray:none"
       d="m 213.54625,8.3085047 c 10.90239,2.4162073 21.8034,4.8321073 30.9369,10.7252053 9.13349,5.893099 16.49904,15.262071 21.80225,23.069817 5.30321,7.807747 8.544,14.053606 10.28204,21.979168 1.73804,7.925561 1.97374,17.530236 2.20941,27.13408"
       id="path11280" />
    <path
       style="display:none;fill:#000000;fill-opacity:1;stroke:#0000ff;stroke-width:1.13386;stroke-dasharray:none"
       d="m 278.95363,91.216775 c -1.35541,9.487855 -2.71067,18.974675 -8.19081,28.608785 -5.48013,9.63411 -15.08461,19.41536 -23.59923,25.60257 -8.51462,6.1872 -15.93909,8.77987 -21.4191,10.40036 -5.48001,1.62049 -9.01547,2.26865 -12.5518,2.91698"
       id="path11330" />
    <path
       style="display:none;fill:#000000;fill-opacity:1;stroke:#0000ff;stroke-width:1.13386;stroke-dasharray:none"
       d="m 213.72302,158.74547 -86.4438,-0.17677 36.416,-36.416 35.70889,-0.17678 v 0"
       id="path11338" />
    <path
       id="path17936"
       style="display:inline;fill:#208b70;fill-opacity:1;stroke:none;stroke-width:1.13386;stroke-dasharray:none;stroke-opacity:1"
       d="M 207.60156,7.5292969 V 43.914062 a 39.539818,39.539818 0 0 1 39.25,39.53125 39.539818,39.539818 0 0 1 -39.25,39.509768 v 36.40625 A 75.937538,75.937538 0 0 0 283.25,83.445312 75.937538,75.937538 0 0 0 207.60156,7.5292969 Z" />
    <rect
       style="display:inline;fill:#208b70;fill-opacity:1;stroke:none;stroke-width:1.1476;stroke-dasharray:none;stroke-opacity:1"
       id="rect17991"
       width="28.296122"
       height="36.380718"
       x="179.5937"
       y="7.5071325" />
    <path
       style="display:inline;fill:#208b70;fill-opacity:1;stroke:none;stroke-width:1.15078;stroke-dasharray:none;stroke-opacity:1"
       d="m 208.46731,122.85712 h -43.96373 l -36.88233,36.38072 h 80.25594 z"
       id="path18049" />
  </g>
  <g
     id="layer1"
     style="display:inline">
    <g
       aria-label="DORSET GOLF CLUB"
       id="text296"
       style="font-size:32px;letter-spacing:5.5px;display:inline;fill:#ffffff;stroke:#ffffff;stroke-width:2;stroke-dasharray:none;stroke-opacity:1"
       transform="translate(0,7.174415)">
      <path
         d="m 32.221993,180.31704 q 0,3.84 -1.44,6.432 -1.408,2.592 -4.064,3.904 -2.656,1.312 -6.432,1.312 h -6.368 v -22.848 h 7.04 q 3.456,0 5.984,1.28 2.528,1.28 3.904,3.776 1.376,2.464 1.376,6.144 z m -3.04,0.096 q 0,-3.04 -1.024,-4.992 -0.992,-1.952 -2.944,-2.88 -1.92,-0.96 -4.672,-0.96 h -3.744 v 17.92 h 3.104 q 4.64,0 6.944,-2.272 2.336,-2.304 2.336,-6.816 z"
         style="fill:#ffffff;stroke:#ffffff;stroke-width:2;stroke-dasharray:none;stroke-opacity:1"
         id="path2844" />
      <path
         d="m 62.713979,180.50904 q 0,2.656 -0.672,4.832 -0.672,2.144 -2.016,3.712 -1.312,1.568 -3.296,2.4 -1.952,0.832 -4.544,0.832 -2.688,0 -4.672,-0.832 -1.984,-0.864 -3.296,-2.4 -1.312,-1.568 -1.952,-3.744 -0.64,-2.176 -0.64,-4.832 0,-3.52 1.152,-6.144 1.152,-2.624 3.488,-4.096 2.368,-1.472 5.952,-1.472 3.424,0 5.76,1.472 2.336,1.44 3.52,4.096 1.216,2.624 1.216,6.176 z m -18.048,0 q 0,2.88 0.8,4.96 0.8,2.08 2.464,3.2 1.696,1.12 4.256,1.12 2.592,0 4.224,-1.12 1.664,-1.12 2.464,-3.2 0.8,-2.08 0.8,-4.96 0,-4.32 -1.792,-6.752 -1.792,-2.464 -5.664,-2.464 -2.592,0 -4.288,1.12 -1.664,1.088 -2.464,3.168 -0.8,2.048 -0.8,4.928 z"
         style="fill:#ffffff;stroke:#ffffff;stroke-width:2;stroke-dasharray:none;stroke-opacity:1"
         id="path2846" />
      <path
         d="m 79.573983,169.11704 q 2.848,0 4.672,0.736 1.856,0.704 2.752,2.144 0.896,1.44 0.896,3.616 0,1.824 -0.672,3.04 -0.672,1.216 -1.728,1.952 -1.024,0.704 -2.176,1.12 l 6.272,10.24 h -3.36 l -5.536,-9.44 h -4.544 v 9.44 h -2.88 v -22.848 z m -0.16,2.496 h -3.264 v 8.48 h 3.424 q 2.784,0 4.064,-1.088 1.28,-1.12 1.28,-3.264 0,-1.504 -0.608,-2.4 -0.576,-0.896 -1.792,-1.312 -1.216,-0.416 -3.104,-0.416 z"
         style="fill:#ffffff;stroke:#ffffff;stroke-width:2;stroke-dasharray:none;stroke-opacity:1"
         id="path2848" />
      <path
         d="m 111.63397,185.85304 q 0,2.048 -0.992,3.488 -0.992,1.408 -2.848,2.176 -1.824,0.768 -4.32,0.768 -1.28,0 -2.464,-0.128 -1.151995,-0.128 -2.111995,-0.352 -0.96,-0.256 -1.696,-0.608 v -2.752 q 1.152,0.512 2.847995,0.928 1.728,0.416 3.552,0.416 1.696,0 2.848,-0.448 1.152,-0.448 1.728,-1.28 0.576,-0.832 0.576,-1.952 0,-1.12 -0.48,-1.888 -0.48,-0.768 -1.664,-1.408 -1.152,-0.672 -3.232,-1.408 -1.472,-0.544 -2.592,-1.152 -1.087995,-0.64 -1.823995,-1.44 -0.736,-0.8 -1.12,-1.824 -0.352,-1.024 -0.352,-2.368 0,-1.824 0.928,-3.104 0.928,-1.312 2.559995,-2.016 1.664,-0.704 3.808,-0.704 1.888,0 3.456,0.352 1.568,0.352 2.848,0.928 l -0.896,2.464 q -1.184,-0.512 -2.592,-0.864 -1.376,-0.352 -2.88,-0.352 -1.44,0 -2.4,0.416 -0.96,0.416 -1.44,1.184 -0.48,0.736 -0.48,1.728 0,1.152 0.48,1.92 0.48,0.768 1.568,1.376 1.088,0.608 2.944,1.312 2.016,0.736 3.392,1.6 1.408,0.832 2.112,2.016 0.736,1.184 0.736,2.976 z"
         style="fill:#ffffff;stroke:#ffffff;stroke-width:2;stroke-dasharray:none;stroke-opacity:1"
         id="path2850" />
      <path
         d="m 134.50997,191.96504 h -12.768 v -22.848 h 12.768 v 2.528 h -9.888 v 7.136 h 9.312 v 2.496 h -9.312 v 8.16 h 9.888 z"
         style="fill:#ffffff;stroke:#ffffff;stroke-width:2;stroke-dasharray:none;stroke-opacity:1"
         id="path2852" />
      <path
         d="m 152.26596,191.96504 h -2.88 v -20.32 h -7.136 v -2.528 h 17.12 v 2.528 h -7.104 z"
         style="fill:#ffffff;stroke:#ffffff;stroke-width:2;stroke-dasharray:none;stroke-opacity:1"
         id="path2854" />
      <path
         d="m 192.06596,179.90104 h 7.904 v 11.2 q -1.856,0.608 -3.744,0.896 -1.888,0.288 -4.288,0.288 -3.552,0 -5.984,-1.408 -2.432,-1.44 -3.712,-4.064 -1.248,-2.656 -1.248,-6.272 0,-3.584 1.408,-6.208 1.408,-2.624 4.032,-4.064 2.656,-1.472 6.4,-1.472 1.92,0 3.616,0.352 1.728,0.352 3.2,0.992 l -1.088,2.496 q -1.216,-0.544 -2.752,-0.928 -1.504,-0.384 -3.136,-0.384 -2.72,0 -4.672,1.12 -1.952,1.12 -2.976,3.2 -1.024,2.048 -1.024,4.896 0,2.72 0.864,4.832 0.896,2.08 2.784,3.264 1.888,1.152 4.96,1.152 1.504,0 2.56,-0.16 1.056,-0.16 1.92,-0.384 v -6.784 h -5.024 z"
         style="fill:#ffffff;stroke:#ffffff;stroke-width:2;stroke-dasharray:none;stroke-opacity:1"
         id="path2856" />
      <path
         d="m 230.87798,180.50904 q 0,2.656 -0.672,4.832 -0.672,2.144 -2.016,3.712 -1.312,1.568 -3.296,2.4 -1.952,0.832 -4.544,0.832 -2.688,0 -4.672,-0.832 -1.984,-0.864 -3.296,-2.4 -1.312,-1.568 -1.952,-3.744 -0.64,-2.176 -0.64,-4.832 0,-3.52 1.152,-6.144 1.152,-2.624 3.488,-4.096 2.368,-1.472 5.952,-1.472 3.424,0 5.76,1.472 2.336,1.44 3.52,4.096 1.216,2.624 1.216,6.176 z m -18.048,0 q 0,2.88 0.8,4.96 0.8,2.08 2.464,3.2 1.696,1.12 4.256,1.12 2.592,0 4.224,-1.12 1.664,-1.12 2.464,-3.2 0.8,-2.08 0.8,-4.96 0,-4.32 -1.792,-6.752 -1.792,-2.464 -5.664,-2.464 -2.592,0 -4.288,1.12 -1.664,1.088 -2.464,3.168 -0.8,2.048 -0.8,4.928 z"
         style="fill:#ffffff;stroke:#ffffff;stroke-width:2;stroke-dasharray:none;stroke-opacity:1"
         id="path2858" />
      <path
         d="m 241.43398,191.96504 v -22.848 h 2.88 v 20.288 h 9.984 v 2.56 z"
         style="fill:#ffffff;stroke:#ffffff;stroke-width:2;stroke-dasharray:none;stroke-opacity:1"
         id="path2860" />
      <path
         d="m 266.58199,191.96504 h -2.88 v -22.848 h 12.768 v 2.528 h -9.888 v 8.096 h 9.28 v 2.528 h -9.28 z"
         style="fill:#ffffff;stroke:#ffffff;stroke-width:2;stroke-dasharray:none;stroke-opacity:1"
         id="path2862" />
      <path
         d="m 309.42197,171.32504 q -1.824,0 -3.296,0.64 -1.472,0.608 -2.496,1.824 -1.024,1.184 -1.568,2.912 -0.544,1.696 -0.544,3.84 0,2.816 0.864,4.896 0.896,2.08 2.624,3.2 1.76,1.12 4.384,1.12 1.504,0 2.848,-0.256 1.344,-0.256 2.624,-0.64 v 2.496 q -1.28,0.48 -2.656,0.704 -1.344,0.224 -3.232,0.224 -3.488,0 -5.824,-1.44 -2.336,-1.44 -3.52,-4.096 -1.152,-2.656 -1.152,-6.24 0,-2.592 0.704,-4.736 0.736,-2.144 2.112,-3.712 1.408,-1.568 3.456,-2.4 2.048,-0.864 4.704,-0.864 1.76,0 3.392,0.352 1.632,0.352 2.912,0.992 l -1.152,2.432 q -1.056,-0.48 -2.368,-0.864 -1.28,-0.384 -2.816,-0.384 z"
         style="fill:#ffffff;stroke:#ffffff;stroke-width:2;stroke-dasharray:none;stroke-opacity:1"
         id="path2864" />
      <path
         d="m 325.35397,191.96504 v -22.848 h 2.88 v 20.288 h 9.984 v 2.56 z"
         style="fill:#ffffff;stroke:#ffffff;stroke-width:2;stroke-dasharray:none;stroke-opacity:1"
         id="path2866" />
      <path
         d="m 364.67797,183.90104 q 0,2.368 -0.96,4.288 -0.96,1.888 -2.944,3.008 -1.952,1.088 -4.992,1.088 -4.256,0 -6.496,-2.304 -2.208,-2.336 -2.208,-6.144 v -14.72 h 2.88 v 14.816 q 0,2.784 1.472,4.32 1.504,1.536 4.512,1.536 2.08,0 3.36,-0.736 1.312,-0.768 1.92,-2.08 0.608,-1.344 0.608,-3.072 v -14.784 h 2.848 z"
         style="fill:#ffffff;stroke:#ffffff;stroke-width:2;stroke-dasharray:none;stroke-opacity:1"
         id="path2868" />
      <path
         d="m 382.72199,169.11704 q 4.288,0 6.464,1.28 2.208,1.248 2.208,4.384 0,1.344 -0.512,2.4 -0.48,1.024 -1.472,1.728 -0.96,0.672 -2.368,0.928 v 0.16 q 1.44,0.224 2.592,0.832 1.184,0.608 1.856,1.728 0.672,1.12 0.672,2.912 0,2.08 -0.96,3.552 -0.96,1.44 -2.752,2.208 -1.76,0.736 -4.224,0.736 h -8.032 v -22.848 z m 0.576,9.728 q 2.944,0 4.032,-0.928 1.088,-0.96 1.088,-2.816 0,-1.888 -1.344,-2.688 -1.312,-0.832 -4.224,-0.832 h -3.776 v 7.264 z m -4.224,2.4 v 8.288 h 4.608 q 3.04,0 4.224,-1.184 1.184,-1.184 1.184,-3.104 0,-1.216 -0.544,-2.112 -0.512,-0.896 -1.76,-1.376 -1.216,-0.512 -3.328,-0.512 z"
         style="fill:#ffffff;stroke:#ffffff;stroke-width:2;stroke-dasharray:none;stroke-opacity:1"
         id="path2870" />
    </g>
  </g>
</svg>
